<svg width="14" height="14" viewBox="0 0 14 14" fill="none" xmlns="http://www.w3.org/2000/svg">
<path d="M9.77221 1.64731C10.5598 0.832906 11.8423 0.613751 12.6434 1.41486C13.4445 2.21597 13.2253 3.49832 12.4154 4.29048C11.9542 4.74146 11.4538 5.22032 10.9366 5.70824C11.6441 6.85838 12.3296 8.11236 12.7885 8.97861C13.1262 9.61593 13.0393 10.4434 12.5909 10.9835C12.0783 11.601 11.256 11.6499 10.7092 11.0853C10.0625 10.4177 9.1879 9.49713 8.38416 8.59318C8.29851 8.49684 8.2199 8.39466 8.14848 8.28767C7.33269 9.03069 6.57705 9.71052 5.97588 10.2483C6.07879 10.883 6.16197 11.536 6.22055 12.0425C6.28165 12.5706 5.93369 13.0543 5.41636 13.1768C4.89903 13.2994 4.37108 13.0233 4.18874 12.5239C3.99326 11.9885 3.7431 11.2757 3.53548 10.5943C2.85414 10.3867 2.14145 10.1366 1.60613 9.94116C1.10673 9.75881 0.830623 9.23086 0.953187 8.71353C1.07575 8.1962 1.55938 7.84824 2.0875 7.90934C2.59103 7.96758 3.23938 8.05014 3.87059 8.15222C4.41877 7.52416 5.11741 6.72901 5.88101 5.87274C5.85309 5.8551 5.82547 5.83697 5.79818 5.81832C4.79945 5.13593 3.77524 4.38531 3.03086 3.82874C2.40139 3.35807 2.34546 2.53622 2.89283 1.94928C3.37158 1.43593 4.1813 1.24465 4.85636 1.49862C5.81427 1.859 7.22274 2.41062 8.49736 2.99367C8.93528 2.52305 9.36484 2.06855 9.77221 1.64731Z" fill="#FFD482" stroke="#FC5930" stroke-width="1.5" stroke-linejoin="round"/>
</svg>
