<svg width="48" height="35" viewBox="0 0 48 35" fill="none" xmlns="http://www.w3.org/2000/svg">
<path fill-rule="evenodd" clip-rule="evenodd" d="M34.1572 0C35.2814 0 36.1929 0.922835 36.1929 2.06121V8.57029C36.1929 8.57029 35.947 8.57029 42.7236 8.57029C49.5002 8.57029 44.5002 18 43.5002 23.1251C43.0002 25.5 42.723 26.6914 42.7236 28.423C44.7825 29.6357 46.6822 31.2675 48 33.8299L47.0341 33.0961C44.7889 31.3908 41.1337 29.923 37.8145 29.3936C35.8939 29.0874 32.1886 29.3825 30.227 29.998L29.7966 30.133L30.3857 30.4795C31.2189 30.9696 31.9985 31.7461 32.2306 32.3172C32.4505 32.8582 32.5103 32.8725 33.7472 32.6793C35.1857 32.4548 39.9731 32.563 39.4062 32.8071C39.2934 32.8557 38.6616 32.9333 38.002 32.9796C35.8292 33.1321 33.0674 33.6453 31.4811 34.1914C31.3102 34.2502 31.1737 34.0837 30.9178 33.5043C30.1169 31.6912 28.2598 30.1182 26.1391 29.4571L25.561 29.2768L26.2355 29.3457C26.9479 29.4183 28.368 29.6842 28.8384 29.8328C29.0786 29.9088 29.1026 29.8801 29.0083 29.629C28.4981 28.2695 27.0224 26.714 25.4437 25.8716C24.0327 25.1187 22.7953 24.8538 21.0185 24.9246C19.6444 24.9793 17.9914 25.3011 17.9914 25.514C17.9914 25.5666 18.089 25.9553 18.2081 26.3778C18.591 27.7344 18.7668 29.1762 18.6133 29.7019C18.527 29.9976 18.4652 30.0803 18.4561 29.9126C18.4271 29.3816 17.6795 27.8683 16.9765 26.918C14.9232 24.1424 11.6646 22.7038 7.43027 22.7038H6C6.00257 18.8605 -6.20095 8.57029 6.0036 8.57029C18.2081 8.57029 12.35 8.57029 12.35 8.57029V2.06121C12.35 0.922835 13.2615 0 14.3857 0H34.1572ZM15.1357 8.57029V2.8206H33.4072V8.57029H15.1357ZM23.9469 12.6674C23.6392 12.8372 23.3875 13.0303 23.3875 13.0967C23.3875 13.163 23.8291 13.5924 24.3689 14.0508C25.7437 15.2187 27.4592 16.9793 27.4051 17.1671C27.3801 17.2537 26.5901 17.7731 25.6497 18.3215L23.9397 19.3185L22.4655 19.166C21.0981 19.0245 20.9693 19.0295 20.6905 19.2344C20.2459 19.5611 20.3123 19.7087 21.1318 20.2161C21.7813 20.6184 21.8795 20.7376 21.9187 21.1725C21.9581 21.6098 22.0117 21.6738 22.3653 21.707C22.715 21.7398 22.7876 21.8231 22.9273 22.3519C23.0155 22.6859 23.0877 23.0677 23.0877 23.2005C23.0877 23.5202 23.4439 23.6167 23.9703 23.4396C24.3323 23.3179 24.464 23.1338 24.8295 22.2391L25.2612 21.1825L27.2098 20.3661C28.2815 19.917 29.1999 19.5473 29.2507 19.5445C29.4127 19.5355 30.2953 21.2518 30.9692 22.8863C31.3667 23.8504 31.707 24.4833 31.8403 24.5061C31.9603 24.5268 32.3361 24.4287 32.6753 24.2883L33.2918 24.0328L33.1905 23.1251C33.0923 22.245 33.1011 22.2099 33.4846 21.965C34.0005 21.6356 33.9833 21.4483 33.4036 21.08L32.9273 20.7773L33.4036 20.4517C34.0128 20.0356 34.0036 19.8501 33.3572 19.5101C32.8628 19.2501 32.8343 19.198 32.8325 18.5515L32.8307 17.8679L34.5704 17.0342C36.4223 16.1467 37.3121 15.471 37.8067 14.5766C37.965 14.2902 38.0528 13.9492 38.0017 13.8186C37.8673 13.4746 36.949 13.3047 36.0077 13.4496C34.9345 13.6149 34.3767 13.8248 32.7793 14.6651C32.0093 15.07 31.3039 15.4014 31.2118 15.4014C31.1197 15.4014 30.7447 15.2545 30.3784 15.0749C29.8314 14.8066 29.6966 14.6677 29.6236 14.2971C29.5232 13.787 29.2563 13.6502 28.6976 13.8226C28.1352 13.9963 28.0342 13.9715 28.0342 13.6599C28.0342 13.5054 27.9442 13.2791 27.8344 13.157C27.658 12.9611 27.5698 12.9523 27.0843 13.0824C26.5666 13.2212 26.4838 13.2045 25.6729 12.7975C25.1991 12.5598 24.7428 12.3639 24.6589 12.3621C24.575 12.3602 24.2546 12.4976 23.9469 12.6674Z" fill="#F66F4D"/>
<path d="M14.6332 30.4902C18.1233 30.8062 20.5754 32.1608 21.6375 34.3596C22.0338 35.1801 21.946 35.1991 21.0267 34.4915C18.7227 32.7183 16.1239 31.6072 12.5203 30.8549C9.36597 30.1965 13.7044 30.4061 14.6332 30.4902Z" fill="#F66F4D"/>
</svg>
